{"title":"Anchorman.2.The.Legend.Continues.2013.UNRATED.WEBRip.XviD-TODE","uid":9744920,"size":1459497382,"categoryP":"video","categoryS":"movies","magnet":"?xt=urn:btih:85b5d3a08191305cfefcd0d2a478c3b3de71d5a0&amp;dn=Anchorman.2.The.Legend.Continues.2013.UNRATED.WEBRip.XviD-TODE&amp;tr=udp%3A%2F%2Ftracker.openbittorrent.com%3A80&amp;tr=udp%3A%2F%2Fopen.demonii.com%3A1337&amp;tr=udp%3A%2F%2Ftracker.coppersurfer.tk%3A6969&amp;tr=udp%3A%2F%2Fexodus.desync.com%3A6969","seeders":3,"leechers":0,"uploader":"xxxlavalxxx","files":-1,"time":1394572129,"description":" &lt;a href=&quot;\nhttp://www.imdb.com/title/tt1229340/&quot; rel=&quot;nofollow&quot; target=&quot;_NEW&quot;&gt;\nhttp://www.imdb.com/title/tt1229340/&lt;/a&gt;\n\n\nWith the 70s behind him, San Diego's top rated newsman, Ron Burgundy, returns to take New York's first 24-hour news channel by storm.\n\nDirector: Adam McKay\nWriters: Will Ferrell, Adam McKay\nStars: Will Ferrell, Christina Applegate, Paul Rudd \nGenres: Comedy\nCountry: USA\nLanguage: English\n\n\nFormat                                   : AVI\nFormat/Info                              : Audio Video Interleave\nFile size                                : 1.36 GiB\nDuration                                 : 2h 3mn\nOverall bit rate                         : 1 578 Kbps\nWriting library                          : VirtualDub build 32842/release\n\nVideo\nID                                       : 0\nFormat                                   : MPEG-4 Visual\nFormat profile                           : Advanced Simple@L5\nFormat settings, BVOP                    : 2\nFormat settings, QPel                    : No\nFormat settings, GMC                     : No warppoints\nFormat settings, Matrix                  : Default (H.263)\nMuxing mode                              : Packed bitstream\nCodec ID                                 : XVID\nCodec ID/Hint                            : XviD\nDuration                                 : 2h 3mn\nBit rate                                 : 1 377 Kbps\nWidth                                    : 720 pixels\nHeight                                   : 300 pixels\nDisplay aspect ratio                     : 2.40:1\nFrame rate                               : 23.976 fps\nColor space                              : YUV\nChroma subsampling                       : 4:2:0\nBit depth                                : 8 bits\nScan type                                : Progressive\nCompression mode                         : Lossy\nBits/(Pixel*Frame)                       : 0.266\nStream size                              : 1.19 GiB (87%)\nWriting library                          : XviD 64\n\nAudio\nID                                       : 1\nFormat                                   : MPEG Audio\nFormat version                           : Version 1\nFormat profile                           : Layer 3\nMode                                     : Joint stereo\nCodec ID                                 : 55\nCodec ID/Hint                            : MP3\nDuration                                 : 2h 3mn\nBit rate mode                            : Constant\nBit rate                                 : 192 Kbps\nChannel(s)                               : 2 channels\nSampling rate                            : 32.0 KHz\nCompression mode                         : Lossy\nStream size                              : 169 MiB (12%)\nAlignment                                : Split accross interleaves\nInterleave, duration                     : 42 ms (1.00 video frame)\nInterleave, preload duration             : 500 ms\n\n\nscrees\n &lt;a href=&quot;\nhttp://i.imgur.com/XwNRY1K.png&quot; rel=&quot;nofollow&quot; target=&quot;_NEW&quot;&gt;\nhttp://i.imgur.com/XwNRY1K.png&lt;/a&gt; &lt;a href=&quot;\nhttp://i.imgur.com/eftuULn.png&quot; rel=&quot;nofollow&quot; target=&quot;_NEW&quot;&gt;\nhttp://i.imgur.com/eftuULn.png&lt;/a&gt; &lt;a href=&quot;\nhttp://i.imgur.com/17Wlxdu.png&quot; rel=&quot;nofollow&quot; target=&quot;_NEW&quot;&gt;\nhttp://i.imgur.com/17Wlxdu.png&lt;/a&gt; &lt;a href=&quot;\nhttp://i.imgur.com/oVqmyTr.png&quot; rel=&quot;nofollow&quot; target=&quot;_NEW&quot;&gt;\nhttp://i.imgur.com/oVqmyTr.png&lt;/a&gt; &lt;a href=&quot;\nhttp://i.imgur.com/aq6wuA8.png&quot; rel=&quot;nofollow&quot; target=&quot;_NEW&quot;&gt;\nhttp://i.imgur.com/aq6wuA8.png&lt;/a&gt; &lt;a href=&quot;\nhttp://i.imgur.com/iXcgLyG.png&quot; rel=&quot;nofollow&quot; target=&quot;_NEW&quot;&gt;\nhttp://i.imgur.com/iXcgLyG.png&lt;/a&gt; &lt;a href=&quot;\nhttp://i.imgur.com/G19Nx3W.png&quot; rel=&quot;nofollow&quot; target=&quot;_NEW&quot;&gt;\nhttp://i.imgur.com/G19Nx3W.png&lt;/a&gt; &lt;a href=&quot;\nhttp://i.imgur.com/DoOnCRK.png&quot; rel=&quot;nofollow&quot; target=&quot;_NEW&quot;&gt;\nhttp://i.imgur.com/DoOnCRK.png&lt;/a&gt;\n","torrent":{"xt":"urn:btih:85b5d3a08191305cfefcd0d2a478c3b3de71d5a0","amp;dn":"Anchorman.2.The.Legend.Continues.2013.UNRATED.WEBRip.XviD-TODE","amp;tr":["udp%3A%2F%2Ftracker.openbittorrent.com%3A80","udp%3A%2F%2Fopen.demonii.com%3A1337","udp%3A%2F%2Ftracker.coppersurfer.tk%3A6969","udp%3A%2F%2Fexodus.desync.com%3A6969"],"infoHash":"85b5d3a08191305cfefcd0d2a478c3b3de71d5a0","infoHashBuffer":{"type":"Buffer","data":[133,181,211,160,129,145,48,92,254,252,208,210,164,120,195,179,222,113,213,160]},"announce":[],"urlList":[]}}